<?xml version="1.0" encoding="UTF-8"?>
<svg width="185px" height="43px" viewBox="0 0 185 43" version="1.1" xmlns="http://www.w3.org/2000/svg" xmlns:xlink="http://www.w3.org/1999/xlink">
    <title>logo</title>
    <defs>
        <polygon id="path-1" points="1.60678609e-05 0.160657297 37.9041989 0.160657297 37.9041989 41.6 1.60678609e-05 41.6"></polygon>
    </defs>
    <g id="Page-1" stroke="none" stroke-width="1" fill="none" fill-rule="evenodd">
        <g id="00-BL-HOME" transform="translate(-120.000000, -88.000000)">
            <g id="Hero">
                <g id="NAV" transform="translate(120.000000, 88.000000)">
                    <g id="logo">
                        <path d="M57.14148,22.21096 L57.14148,26.31156 L60.40388,26.31156 C61.76308,26.31156 62.80528,25.67736 62.80528,24.25016 C62.80528,22.82276 61.76308,22.21096 60.40388,22.21096 L57.14148,22.21096 Z M57.14148,15.52756 L57.14148,19.56036 L59.58808,19.56036 C60.76628,19.56036 61.71788,18.94856 61.71788,17.49876 C61.71788,16.13956 60.76628,15.52756 59.58808,15.52756 L57.14148,15.52756 Z M54.21888,28.96236 L54.21888,12.87716 L59.92808,12.87716 C62.98648,12.87716 64.68568,14.68956 64.68568,17.04556 C64.68568,18.47296 64.07388,19.65096 62.91848,20.39856 C64.79888,21.10096 65.79568,22.59616 65.79568,24.49916 C65.79568,27.03656 64.00588,28.96236 60.81168,28.96236 L54.21888,28.96236 Z" id="Fill-1" fill="#FDFDD0"></path>
                        <polygon id="Fill-3" fill="#FDFDD0" points="72.52956 28.96232 72.52956 12.87712 75.45196 12.87712 75.45196 26.31172 82.33936 26.31172 82.33936 28.96232"></polygon>
                        <path d="M101.3739,20.91974 C101.3739,17.49874 98.9273,15.11994 95.7327,15.11994 C92.4931,15.11994 90.0691,17.49874 90.0691,20.91974 C90.0691,24.34054 92.4931,26.71954 95.7327,26.71954 C98.9273,26.71954 101.3739,24.34054 101.3739,20.91974 M87.1463,20.91974 C87.1463,15.89034 90.9297,12.46934 95.7327,12.46934 C100.5129,12.46934 104.2965,15.89034 104.2965,20.91974 C104.2965,25.94914 100.5129,29.37014 95.7327,29.37014 C90.9297,29.37014 87.1463,25.94914 87.1463,20.91974" id="Fill-5" fill="#FDFDD0"></path>
                        <path d="M115.40184,29.2342 C113.74804,29.2342 112.27544,28.7132 110.66704,28.1694 L110.66704,25.1108 L115.31144,26.6968 C116.82924,26.6968 117.78084,25.9946 117.78084,24.6352 C117.78084,21.2594 110.71224,22.3924 110.71224,16.887 C110.71224,14.3496 112.68324,12.6052 115.53784,12.6052 C117.07844,12.6052 118.46044,12.9676 119.70644,13.4434 L119.70644,16.4792 L115.60604,15.12 C114.33724,15.12 113.56684,15.845 113.56684,16.8418 C113.56684,19.8322 120.68064,19.1072 120.68064,24.6126 C120.68064,27.4672 118.48284,29.2342 115.40184,29.2342" id="Fill-7" fill="#FDFDD0"></path>
                        <path d="M132.62938,29.2342 C130.97558,29.2342 129.50298,28.7132 127.89438,28.1694 L127.89438,25.1108 L132.53878,26.6968 C134.05678,26.6968 135.00838,25.9946 135.00838,24.6352 C135.00838,21.2594 127.93978,22.3924 127.93978,16.887 C127.93978,14.3496 129.91078,12.6052 132.76538,12.6052 C134.30598,12.6052 135.68778,12.9676 136.93378,13.4434 L136.93378,16.4792 L132.83338,15.12 C131.56458,15.12 130.79418,15.845 130.79418,16.8418 C130.79418,19.8322 137.90818,19.1072 137.90818,24.6126 C137.90818,27.4672 135.71038,29.2342 132.62938,29.2342" id="Fill-9" fill="#FDFDD0"></path>
                        <path d="M158.4907,20.91974 C158.4907,17.49874 156.0439,15.11994 152.8495,15.11994 C149.6099,15.11994 147.1857,17.49874 147.1857,20.91974 C147.1857,24.34054 149.6099,26.71954 152.8495,26.71954 C156.0439,26.71954 158.4907,24.34054 158.4907,20.91974 M144.2631,20.91974 C144.2631,15.89034 148.0465,12.46934 152.8495,12.46934 C157.6297,12.46934 161.4131,15.89034 161.4131,20.91974 C161.4131,25.94914 157.6297,29.37014 152.8495,29.37014 C148.0465,29.37014 144.2631,25.94914 144.2631,20.91974" id="Fill-11" fill="#FDFDD0"></path>
                        <polygon id="Fill-13" fill="#FDFDD0" points="167.9823 28.96232 167.9823 12.87712 171.2447 12.87712 176.0931 20.96752 180.9413 12.87712 184.2035 12.87712 184.2035 28.96232 181.3945 28.96232 181.3945 17.95532 176.1083 26.11932 170.7917 17.81932 170.7917 28.96232"></polygon>
                        <g id="Group-17" transform="translate(0.000000, 0.039400)">
                            <mask id="mask-2" fill="white">
                                <use xlink:href="#path-1"></use>
                            </mask>
                            <g id="Clip-16"></g>
                            <path d="M30.44284,34.96366 C31.44424,31.94366 31.25684,27.99466 29.87844,23.21066 C29.51244,21.94006 29.08684,20.70366 28.63844,19.53986 C30.80124,15.95906 32.72064,14.42386 33.80604,14.42386 C34.87924,14.42386 35.81264,16.39586 35.91884,20.60426 C36.05784,26.10526 34.31404,31.06866 30.44284,34.96366 M21.25984,38.61026 C18.40484,36.54266 20.76804,31.00226 21.57604,29.60086 C22.83944,27.40966 24.26624,25.57986 25.52504,23.96546 C26.14424,23.17166 26.74184,22.40306 27.28884,21.63666 C28.78324,25.91066 29.76464,30.99526 28.45044,34.67686 C27.19804,38.18466 22.98484,39.85946 21.25984,38.61026 M1.99424,20.61866 C2.09984,17.97066 2.78204,13.72906 5.09384,12.31806 C4.34804,14.86366 3.96244,17.67206 3.98264,20.57986 C4.01704,25.50926 5.35124,31.55446 8.47764,35.87066 C3.69584,31.93406 1.78324,25.90806 1.99424,20.61866 M13.19684,4.79806 C14.95264,4.79806 15.95944,7.30026 16.20324,10.52746 C16.51164,14.60886 15.83884,19.10946 15.11544,23.44986 C13.91964,30.62726 13.30164,35.93606 15.93684,39.09046 C12.40104,37.47846 11.59484,31.58746 11.61504,23.87486 C11.63564,16.08686 9.84184,12.15646 7.72904,10.76186 C8.09644,9.86446 8.51904,9.01166 9.00084,8.21986 C10.30064,6.08386 11.89784,4.79806 13.19684,4.79806 M7.03364,12.74006 C8.34264,14.01126 9.65424,17.38926 9.63724,23.86966 C9.62304,29.25246 10.03664,33.10286 10.96784,35.83166 C7.85424,32.34886 6.56304,27.19826 6.16904,23.92506 C5.71224,20.12826 6.00044,16.19366 7.03364,12.74006 M22.46124,3.41486 C22.63004,2.88066 22.95004,2.54006 23.44544,2.29446 C23.85204,2.09266 24.52504,2.00046 25.34304,2.53146 C26.62024,3.36026 28.14184,5.66126 28.17804,9.49486 C28.20244,12.08546 27.93864,14.50706 27.40784,16.63226 C26.84504,15.41666 26.29364,14.36426 25.81704,13.54986 C22.11264,7.21606 22.12444,4.48126 22.46124,3.41486 M37.89624,20.55426 C37.77544,15.77586 36.64764,13.07866 34.54424,12.53786 C33.11244,12.16966 31.49324,12.90946 29.81044,14.65526 C30.05484,13.02506 30.17284,11.28666 30.15564,9.47646 C30.11944,5.60966 28.68164,2.30886 26.40364,0.86186 C25.16584,0.07586 23.82284,-0.05414 22.62164,0.49606 C21.61744,0.95606 20.90984,1.75946 20.57524,2.81906 C19.80124,5.26926 20.99044,9.21546 24.10984,14.54846 C24.69824,15.55446 25.57524,17.28166 26.43044,19.37326 C25.74464,20.46666 24.87784,21.57906 23.96524,22.74926 C22.66664,24.41446 21.19484,26.30206 19.86244,28.61286 C19.40844,29.40026 17.92704,32.20406 17.92204,35.23086 C17.91944,36.66726 18.24944,37.92846 18.85604,38.89806 C14.80724,37.17326 16.15664,29.53846 17.06944,23.75846 C17.77324,19.30006 18.50124,14.68966 18.17564,10.37846 C17.98964,7.91666 17.21084,3.67486 14.08344,2.92406 C11.83604,2.38386 9.24104,4.01966 7.31104,7.19166 C6.75364,8.10806 6.26244,9.10146 5.83884,10.15586 C2.65384,10.10326 0.26364,14.37466 0.01784,20.53986 C-0.21456,26.36406 1.83464,31.97586 5.64004,35.93606 C9.14964,39.58846 13.86284,41.60006 18.91084,41.60006 C21.49484,41.60006 27.39244,41.04526 32.26384,35.93606 C36.00664,32.01086 38.04864,26.59286 37.89624,20.55426" id="Fill-15" fill="#FFCC02" mask="url(#mask-2)"></path>
                        </g>
                    </g>
                </g>
            </g>
        </g>
    </g>
</svg>