<?xml version="1.0" standalone="no"?>
<!DOCTYPE svg PUBLIC "-//W3C//DTD SVG 20010904//EN"
 "http://www.w3.org/TR/2001/REC-SVG-20010904/DTD/svg10.dtd">
<svg version="1.0" xmlns="http://www.w3.org/2000/svg"
 width="368.000000pt" height="368.000000pt" viewBox="0 0 368.000000 368.000000"
 preserveAspectRatio="xMidYMid meet">
<metadata>
Created by potrace 1.14, written by Peter Selinger 2001-2017
</metadata>
<g transform="translate(0.000000,368.000000) scale(0.100000,-0.100000)"
fill="#000000" stroke="none">
<path d="M0 1843 l0 -1178 1840 0 1840 0 0 1177 0 1178 -1840 0 -1840 0 0
-1177z m3510 985 c1 -76 1 -1920 1 -1953 l-1 -41 -1670 0 -1670 0 0 26 c-1 31
-1 1948 0 1973 0 16 86 17 1670 17 l1670 0 0 -22z"/>
<path d="M1844 2259 c-122 -16 -210 -100 -217 -206 l-2 -37 65 -1 c81 -1 85 0
87 28 1 12 16 34 33 50 24 21 40 27 78 27 69 0 103 -30 109 -96 4 -43 2 -55
-19 -79 -21 -24 -34 -29 -93 -34 l-69 -6 -2 -67 -1 -68 44 0 c105 0 168 -70
140 -155 -17 -50 -121 -74 -173 -40 -14 9 -32 32 -40 51 -15 36 -15 36 -109
36 -19 0 -40 -1 -46 -1 -24 -2 18 -130 54 -165 55 -53 128 -80 216 -78 170 3
266 97 255 251 -4 51 -47 151 -66 151 -14 0 -9 20 12 42 73 79 73 221 -1 311
-55 66 -152 99 -255 86z"/>
<path d="M2668 2265 c-2 -2 -22 -5 -46 -9 -98 -13 -176 -70 -215 -156 -40 -86
-40 -432 0 -520 39 -88 114 -142 218 -158 157 -25 291 38 346 161 21 48 23 67
25 236 1 201 -7 257 -50 321 -33 51 -80 85 -141 103 -48 15 -130 28 -137 22z
m107 -183 c55 -32 65 -69 65 -240 0 -170 -8 -205 -58 -241 -44 -31 -116 -35
-169 -10 -63 30 -76 66 -77 224 -2 159 6 211 40 246 47 49 134 58 199 21z"/>
<path d="M670 1840 c0 -461 -9 -412 75 -412 19 0 45 1 58 1 l23 1 -1 243 c-1
133 1 246 3 250 4 7 57 -99 114 -225 l22 -48 68 0 c37 0 68 4 68 9 0 14 129
278 130 266 1 -5 1 -119 1 -252 l-1 -241 43 -4 c23 -1 59 -2 79 0 l37 3 0 410
0 410 -81 -3 -80 -3 -97 -202 c-53 -112 -99 -203 -103 -203 -3 0 -17 24 -31
53 -13 28 -57 121 -97 205 l-73 152 -79 0 -78 0 0 -410z"/>
</g>
</svg>
